<svg xmlns="http://www.w3.org/2000/svg" viewBox="0 0 800 600" width="800" height="600" role="presentation">
  <defs>
    <pattern id="wheat" width="72" height="72" patternUnits="userSpaceOnUse" patternTransform="rotate(18)">
      <g fill="none" stroke="#C88A2E" stroke-width="1.5" stroke-linecap="round" opacity="0.32">
        <path d="M36 16v40M36 24l-8-5M36 24l8-5M36 34l-8-5M36 34l8-5M36 44l-8-5M36 44l8-5"/>
      </g>
    </pattern>
    <linearGradient id="wash" x1="0" y1="0" x2="1" y2="1">
      <stop offset="0%" stop-color="#F3ECDF"/>
      <stop offset="100%" stop-color="#E4EBDF"/>
    </linearGradient>
  </defs>

  <rect width="800" height="600" fill="url(#wash)"/>
  <rect width="800" height="600" fill="url(#wheat)"/>

  <g transform="translate(400 286)">
    <g fill="none" stroke="#35513A" stroke-width="7" stroke-linecap="round" opacity="0.5">
      <path d="M0-74V44M0-50l-27-16M0-50l27-16M0-20l-27-16M0-20l27-16M0 10l-27-16M0 10l27-16"/>
    </g>
  </g>

  <text x="400" y="404" text-anchor="middle"
        font-family="'IBM Plex Sans Arabic', system-ui, sans-serif"
        font-size="21" font-weight="600" fill="#6E6152" opacity="0.78">
    صورة المدرسة — استبدلها
  </text>
  <text x="400" y="434" text-anchor="middle"
        font-family="'IBM Plex Sans Arabic', system-ui, sans-serif"
        font-size="16" fill="#6E6152" opacity="0.6">
    Replace with a real photograph
  </text>
</svg>
